<svg width="248" height="247" viewBox="0 0 248 247" fill="none" xmlns="http://www.w3.org/2000/svg">
<path fill-rule="evenodd" clip-rule="evenodd" d="M116.761 246.867V219.372C67.3421 215.889 27.4409 174.747 27.4409 123.433C27.4409 72.1194 67.3421 30.9774 116.761 27.4946V0C52.3873 3.52063 0 56.753 0 123.433C0 190.114 52.3873 243.346 116.761 246.867ZM130.481 246.867C194.854 243.346 247.241 190.114 247.241 123.433C247.241 56.753 194.854 3.52063 130.481 0V34.4156C140.138 35.1496 149.367 37.42 157.922 40.9829V33.5501C194.102 47.3654 219.8 82.3982 219.8 123.433C219.8 164.468 194.103 199.5 157.923 213.316C157.923 172.206 157.922 131.1 157.922 89.9902C150.728 82.6129 141.174 77.548 130.481 76.0146C130.481 132.966 130.481 189.916 130.481 246.867ZM164.782 194.901C185.961 182.684 200.861 161.531 204.943 137.153H176.914C174.677 145.872 170.435 153.609 164.782 159.961V194.901ZM123.621 178.451C93.501 178.451 68.6018 154.086 68.6018 123.433C68.6018 90.0208 97.9022 64.7864 130.481 68.8384C152.832 71.6183 171.317 87.9062 176.914 109.713H204.943C198.723 72.5734 167.893 44.3365 130.481 41.2554C83.0026 37.3455 41.1613 74.5138 41.1613 123.433C41.1613 169.981 79.045 205.887 123.621 205.891V178.451Z" fill="url(#paint0_linear_1_11)"/>
<defs>
<linearGradient id="paint0_linear_1_11" x1="130.48" y1="246.866" x2="130.49" y2="-6.10081e-06" gradientUnits="userSpaceOnUse">
<stop stop-color="#E6B052"/>
<stop offset="0.501961" stop-color="#FFDF89"/>
<stop offset="1" stop-color="#AF8B49"/>
</linearGradient>
</defs>
</svg>
